# xmcd
#
# Track frame offsets: 
#        150
#        16135
#        49245
#        77950
#        110832
#        151022
#        178122
#        213180
#        248745
#        286275
#
# Disc length: 4231 seconds
#
# Revision: 3
# Processed by: cddbd v1.5.2PL0 Copyright (c) Steve Scherf et al.
# Submitted via: ExactAudioCopyFreeDBPlugin 1.0
#
DISCID=8110850a
DTITLE=Sas, Julian - Light In The Dark
DYEAR=2003
DGENRE=Blues
TTITLE0=A Light In The Dark
TTITLE1=County Jail Blues
TTITLE2=Losing Ground
TTITLE3=Serves Me Right To Suffer
TTITLE4=Blues For J
TTITLE5=Is This What They Call The Blues
TTITLE6=Where Will It End?!
TTITLE7=Make Up Your Mind
TTITLE8=Ragin' River
TTITLE9=Blues For The Lost And Found
EXTD=YEAR: 2003
EXTT0=
EXTT1=
EXTT2=
EXTT3=
EXTT4=
EXTT5=
EXTT6=
EXTT7=
EXTT8=
EXTT9=
PLAYORDER=
